<svg width="40" height="40" viewBox="0 0 40 40" fill="none" xmlns="http://www.w3.org/2000/svg">
<path d="M17.3333 4C9.98533 4 4 9.98533 4 17.3333C4 24.6813 9.98533 30.6667 17.3333 30.6667C20.5287 30.6667 23.4632 29.532 25.763 27.6484L33.724 35.6094C33.8468 35.7373 33.994 35.8395 34.1568 35.9099C34.3197 35.9803 34.4949 36.0175 34.6723 36.0193C34.8497 36.0211 35.0256 35.9875 35.1899 35.9204C35.3541 35.8533 35.5033 35.7542 35.6288 35.6288C35.7542 35.5033 35.8533 35.3541 35.9204 35.1899C35.9875 35.0256 36.0211 34.8497 36.0193 34.6723C36.0175 34.4949 35.9803 34.3197 35.9099 34.1568C35.8395 33.994 35.7373 33.8468 35.6094 33.724L27.6484 25.763C29.532 23.4632 30.6667 20.5287 30.6667 17.3333C30.6667 9.98533 24.6813 4 17.3333 4ZM17.3333 6.66667C23.2402 6.66667 28 11.4265 28 17.3333C28 23.2402 23.2402 28 17.3333 28C11.4265 28 6.66667 23.2402 6.66667 17.3333C6.66667 11.4265 11.4265 6.66667 17.3333 6.66667Z" fill="#593C1C"/>
</svg>
